# Blender 3.5.1
# www.blender.org
o Cube
v 0.814735 -2.101969 -0.751317
v 0.946129 -0.291628 1.693703
v -0.812018 -2.101969 -0.751317
v -0.943411 -0.291628 1.693703
v 0.814735 -2.101969 -0.944273
v 0.947735 -0.291175 -1.433460
v -0.812018 -2.101969 -0.944273
v -0.945018 -0.291175 -1.433460
v 0.518951 -0.116461 2.122666
v -0.516233 -0.116461 2.122666
v -0.516619 -0.072756 -1.755813
v 0.519337 -0.072756 -1.755813
v -0.709912 -2.207916 -0.751317
v 0.712630 -2.207916 -0.751317
v -0.709912 -2.207916 -0.944273
v 0.712630 -2.207916 -0.944273
v -0.180739 -0.864127 5.806862
v 0.183457 -0.864127 5.806862
v 0.183457 -0.739984 5.806862
v -0.180739 -0.739984 5.806862
v 0.055614 -0.092320 5.764930
v -0.052896 -0.092320 5.764930
v -0.123445 -1.682253 5.764930
v 0.126163 -1.682253 5.764930
v -0.130017 -0.894161 6.918637
v 0.132735 -0.894161 6.918637
v 0.132735 -0.709951 6.918637
v -0.130017 -0.709951 6.918637
v 0.087128 -0.092320 6.960571
v -0.084410 -0.092320 6.960571
v -0.038301 -1.682253 6.960571
v 0.041019 -1.682253 6.960571
v 0.055615 1.507403 6.693508
v -0.052896 1.507403 6.693508
v 0.087128 1.507403 7.451535
v -0.084410 1.507403 7.451535
v 0.076952 -1.308903 6.960571
v 0.239240 -1.308903 5.764930
v 0.239240 -0.295208 5.764930
v 0.076952 -0.295208 6.960571
v -0.236522 -0.295208 5.764930
v -0.236522 -1.308903 5.764930
v -0.074234 -0.295208 6.960571
v -0.074234 -1.308903 6.960571
v 1.381436 -0.894161 7.079384
v 1.432159 -0.864127 6.167916
v 1.432159 -0.739984 6.167916
v 1.381436 -0.709951 7.079384
v -1.429440 -0.739984 6.167916
v -1.429440 -0.864127 6.167916
v -1.378718 -0.709951 7.079384
v -1.378718 -0.894161 7.079384
v -0.406469 -0.157545 -4.096632
v -0.406469 -0.683199 -4.096632
v 0.409186 -0.683199 -4.096632
v 0.409186 -0.157545 -4.096632
v -0.290455 -0.052337 -4.096632
v 0.293172 -0.052337 -4.096632
v 0.065732 -1.791604 -2.487841
v -0.063014 -1.791604 -2.487841
v -0.777379 0.316020 0.849381
v -0.776863 0.283721 -0.871088
v 0.779580 0.283721 -0.871088
v 0.780096 0.316020 0.849381
v 0.531302 0.475909 1.087739
v -0.528585 0.475909 1.087739
v -0.528190 0.599656 -1.098868
v 0.530908 0.599656 -1.098868
v 6.722986 0.299330 -0.959102
v 6.722986 0.466782 0.914162
v 6.730823 0.567370 -0.959102
v 6.730823 0.532361 0.914162
v -6.720268 0.466782 0.914162
v -6.720268 0.299330 -0.959101
v -6.728105 0.532361 0.914162
v -6.728105 0.567370 -0.959101
v -0.714172 -0.215813 -1.895579
v 0.716890 -0.215813 -1.895579
v -0.730667 0.742713 -0.959101
v 0.733385 0.742713 -0.959101
v -0.998641 -0.483854 2.296243
v -0.998641 -0.483854 -1.895579
v -0.722830 0.509682 0.914162
v -0.722830 0.474673 -0.959101
v 0.716890 -0.215813 2.296243
v -0.714172 -0.215813 2.296243
v 0.733385 0.575261 0.914162
v -0.730667 0.575261 0.914162
v 0.716890 -0.215813 2.296243
v -0.714172 -0.215813 2.296243
v 0.733385 0.575261 0.914162
v -0.730667 0.575261 0.914162
v -0.516233 -0.116461 2.122666
v -0.528585 0.475909 1.087739
v 1.001359 -0.483854 -1.895579
v 1.001359 -0.483854 2.296243
v 0.725548 0.509682 0.914162
v 0.725548 0.474673 -0.959101
v 1.001359 -0.483854 -1.895579
v 1.001359 -0.483854 2.296243
v 0.725548 0.509682 0.914162
v 0.725548 0.474673 -0.959101
v -0.998641 -1.823068 -1.553281
v -0.998641 -1.823068 0.446719
v -0.067460 -1.869072 -2.343524
v -0.523289 -2.316309 0.446719
v 1.001359 -1.823068 0.446719
v 1.001359 -1.823068 -1.553281
v 0.526006 -2.316309 0.446719
v 0.070178 -1.869072 -2.343524
v -0.998641 -1.823068 -1.553281
v -0.998641 -1.823068 0.446719
v -0.523289 -2.316309 -1.553281
v -0.523289 -2.316309 0.446719
v 1.678786 -2.934685 -0.751317
v 1.678786 -2.934685 -0.944274
v 1.576681 -3.040632 -0.751317
v 1.576681 -3.040632 -0.944274
v -1.676069 -2.934685 -0.944273
v -1.676069 -2.934685 -0.751317
v -1.573964 -3.040632 -0.944273
v -1.573964 -3.040632 -0.751317
v 0.526006 -2.316309 -1.553281
v 0.215325 -0.876801 -4.096632
v -0.523289 -2.316309 -1.553281
v -0.212607 -0.876801 -4.096632
v 0.070178 -2.926373 -2.911077
v 0.065732 -2.848904 -3.055394
v -0.067460 -2.926373 -2.911077
v -0.063014 -2.848904 -3.055394
vn -0.9549 0.2464 0.1660
vn -0.8879 0.4550 0.0678
vn -0.9623 -0.2245 0.1532
vn -0.9530 0.2704 0.1364
vn -0.9568 0.2481 -0.1515
vn -0.8618 0.4566 -0.2210
vn 0.7345 0.6650 -0.1352
vn 0.9015 -0.3865 -0.1949
vn 0.6169 -0.2162 -0.7567
vn 0.6496 0.3169 -0.6911
vn 0.7328 0.6651 0.1438
vn 0.9378 -0.3407 0.0673
vn -0.3039 -0.6325 -0.7124
vn 0.3039 -0.6325 -0.7124
vn 0.5688 -0.2336 -0.7887
vn -0.5688 -0.2336 -0.7887
vn -0.3527 0.9301 0.1028
vn -0.1089 0.9454 0.3072
vn -0.8667 0.0881 0.4910
vn 0.5053 0.8027 -0.3169
vn 0.1269 0.8521 -0.5078
vn 0.4915 0.6569 -0.5718
vn 0.3540 -0.8980 -0.2614
vn 0.2426 -0.5327 -0.8108
vn -0.6246 0.7496 -0.2189
vn -0.3462 0.1406 -0.9276
vn -0.1874 0.8605 -0.4737
vn 0.8109 0.5700 0.1323
vn 0.7671 -0.6059 0.2108
vn -0.8224 -0.5028 0.2660
vn -0.5174 -0.3190 -0.7941
vn 0.4220 -0.9026 0.0853
vn 0.8939 -0.3241 0.3096
vn 0.3041 -0.9025 0.3051
vn 0.0151 -0.8164 0.5774
vn 0.8164 0.0151 0.5774
vn -0.3041 -0.9025 0.3051
vn -0.8939 -0.3241 0.3096
vn -0.8164 0.0151 0.5774
vn -0.0151 -0.8164 0.5774
vn -0.5512 -0.8265 0.1143
vn 0.9530 0.2704 0.1364
vn 0.6246 0.7496 -0.2189
vn 0.7357 0.0405 0.6761
vn 0.6392 0.1315 0.7577
vn 0.5512 -0.8265 0.1143
vn 0.9623 -0.2245 0.1532
vn 0.6637 -0.0662 0.7451
vn 0.4965 -0.6333 0.5937
vn 0.9191 -0.3165 0.2347
vn 0.9191 0.3165 0.2347
vn 0.6615 0.5799 -0.4755
vn 0.6615 -0.5799 -0.4755
vn 0.3527 0.9301 0.1028
vn -0.6392 0.1315 0.7577
vn -0.6637 -0.0662 0.7451
vn -0.7357 0.0405 0.6761
vn -0.4965 -0.6333 0.5937
vn -0.5729 0.4892 0.6576
vn -0.5966 0.6922 -0.4061
vn -0.6020 0.3020 0.7392
vn -0.9191 0.3165 0.2347
vn -0.6615 0.5799 -0.4755
vn -0.5229 0.5826 0.6222
vn 0.5966 0.6922 -0.4061
vn 0.5729 0.4892 0.6576
vn 0.6020 -0.3020 0.7392
vn 0.6020 0.3020 0.7392
vn -0.9191 -0.3165 0.2347
vn -0.6020 -0.3020 0.7392
vn 0.5229 0.5826 0.6222
vn 0.5229 -0.5826 0.6222
vn -0.6615 -0.5799 -0.4755
vn -0.5229 -0.5826 0.6222
vn -0.6169 -0.2162 -0.7567
vn -0.6496 0.3169 -0.6911
vn -0.2426 -0.5327 -0.8108
vn -0.2494 0.7338 -0.6319
vn 0.2494 0.7338 -0.6319
vn -0.5053 0.8027 -0.3169
vn -0.1269 0.8521 -0.5078
vn -0.5997 0.5682 -0.5635
vn -0.6009 0.5553 0.5750
vn 0.1089 0.9454 0.3072
vn 0.3900 0.7268 0.5654
vn 0.5588 -0.5649 0.6072
vn 0.6009 0.5553 0.5750
vn -0.0000 0.8746 0.4848
vn -0.0000 0.9509 0.3094
vn 0.2864 0.9468 -0.1465
vn 0.6646 -0.6370 -0.3906
vn -0.8799 0.0189 -0.4748
vn 0.5493 -0.6188 -0.5615
vn 0.5997 0.5682 -0.5635
vn -0.5493 -0.6188 -0.5615
vn -0.5588 -0.5649 0.6072
vn 0.1874 0.8605 -0.4737
vn 0.3462 0.1406 -0.9276
vn -0.8393 0.5280 -0.1294
vn -0.8109 0.5700 0.1323
vn -0.7671 -0.6059 0.2108
vn -0.7705 -0.6122 -0.1774
vn -0.0000 0.9852 0.1714
vn -0.0000 0.9855 0.1699
vn -0.1214 0.9382 0.3242
vn -0.6157 0.2736 0.7389
vn 0.2271 0.9739 -0.0002
vn 0.1832 0.9831 -0.0001
vn 0.5321 0.8467 -0.0019
vn 0.5111 0.8595 -0.0018
vn 0.8393 0.5280 -0.1294
vn 0.7705 -0.6122 -0.1774
vn -0.4892 0.8711 -0.0428
vn -0.4867 0.8732 0.0269
vn -0.4771 0.8783 0.0300
vn -0.4707 0.8807 -0.0533
vn 0.8856 -0.3278 -0.3292
vn 0.3085 -0.8948 -0.3227
vn -0.8856 -0.3278 -0.3292
vn -0.3085 -0.8948 -0.3227
vn 0.8164 0.0151 -0.5774
vn 0.0151 -0.8164 -0.5774
vn -0.8164 0.0151 -0.5774
vn -0.0151 -0.8164 -0.5774
vn 0.3058 -0.9330 -0.1899
vn -0.3058 -0.9330 -0.1899
vn 0.5858 -0.7771 0.2300
vn -0.5858 -0.7771 0.2300
vt 0.719662 0.849916
vt 0.676405 0.242669
vt 0.546944 0.907629
vt 0.956442 0.042922
vt 0.257394 0.968636
vt 0.564624 0.958288
vt 0.876970 0.803552
vt 0.796387 0.857184
vt 0.953176 0.907005
vt 0.253778 0.391238
vt 0.133559 0.968636
vt 0.688458 0.958288
vt 0.677826 0.230323
vt 0.705018 0.862756
vt 0.534299 0.907577
vt 0.923289 0.962018
vt 0.956518 0.247863
vt 0.564518 0.756386
vt 0.796387 0.844756
vt 0.867340 0.888974
vt 0.965821 0.906953
vt 0.275023 0.595075
vt 0.914728 0.962018
vt 0.688563 0.756386
vt 0.229398 0.994141
vt 0.592620 0.984011
vt 0.711851 0.862716
vt 0.660462 0.984011
vt 0.901844 0.818200
vt 0.891673 0.968478
vt 0.660487 0.733115
vt 0.946343 0.968478
vt 0.901844 0.886093
vt 0.592594 0.733115
vt 0.867340 0.803527
vt 0.803079 0.858468
vt 0.729293 0.849892
vt 0.669610 0.243179
vt 0.803079 0.846040
vt 0.876962 0.888934
vt 0.671032 0.230833
vt 0.695396 0.862716
vt 0.107881 0.929300
vt 0.193561 0.126748
vt 0.837074 0.885263
vt 0.902797 0.609408
vt 0.830242 0.885263
vt 0.497684 0.126748
vt 0.101049 0.929300
vt 0.974615 0.514352
vt 0.822142 0.885050
vt 0.101049 0.921184
vt 0.489630 0.125906
vt 0.003416 0.892302
vt 0.974088 0.704464
vt 0.107881 0.921184
vt 0.201615 0.125906
vt 0.845173 0.885050
vt 0.946134 0.507520
vt 0.726774 0.843060
vt 0.446517 0.124200
vt 0.953246 0.507520
vt 0.244728 0.124200
vt 0.719662 0.843060
vt 0.141134 0.135013
vt 0.567783 0.648548
vt 0.550111 0.135013
vt 0.584034 0.650419
vt 0.184389 0.054465
vt 0.356377 0.914523
vt 0.974615 0.615143
vt 0.506857 0.054465
vt 0.341470 0.923143
vt 0.902797 0.520088
vt 0.494906 0.053215
vt 0.335441 0.912719
vt 0.074707 0.897992
vt 0.902797 0.710154
vt 0.196339 0.053215
vt 0.350348 0.904098
vt 0.317718 0.876102
vt 0.454833 0.046275
vt 0.236413 0.046275
vt 0.327450 0.870474
vt 0.376868 0.961963
vt 0.133559 0.057048
vt 0.564518 0.725688
vt 0.557686 0.057048
vt 0.372368 0.964565
vt 0.569683 0.726283
vt 0.496032 0.928754
vt 0.726774 0.733115
vt 0.349039 0.052816
vt 0.342206 0.052816
vt 0.503144 0.928754
vt 0.719662 0.733115
vt 0.493967 0.977694
vt 0.264226 0.783604
vt 0.354384 0.003416
vt 0.336861 0.003416
vt 0.505209 0.977694
vt 0.273958 0.777976
vt 0.533693 0.054527
vt 0.358111 0.944616
vt 0.526608 0.132519
vt 0.097393 0.958571
vt 0.097393 0.892302
vt 0.460845 0.125640
vt 0.467930 0.047648
vt 0.324936 0.887250
vt 0.111537 0.892302
vt 0.230400 0.125640
vt 0.111537 0.958571
vt 0.164637 0.132519
vt 0.333513 0.882289
vt 0.223315 0.047648
vt 0.366688 0.939656
vt 0.157552 0.054527
vt 0.966650 0.863890
vt 0.270255 0.963468
vt 0.902797 0.602576
vt 0.830242 0.803399
vt 0.968259 0.804172
vt 0.961816 0.598460
vt 0.822142 0.803186
vt 0.976357 0.804172
vt 0.016246 0.976421
vt 0.978666 0.863890
vt 0.264226 0.953043
vt 0.074707 0.980484
vt 0.961258 0.788582
vt 0.974963 0.906953
vt 0.845174 0.803186
vt 0.983060 0.906953
vt 0.837074 0.803399
vt 0.915596 0.693515
vt 0.902797 0.792645
vt 0.972654 0.966671
vt 0.420818 0.862485
vt 0.984669 0.966671
vt 0.426847 0.872910
vt 0.974615 0.697631
vt 0.433679 0.935620
vt 0.305188 0.767576
vt 0.433679 0.969927
vt 0.623389 0.003416
vt 0.271086 0.771143
vt 0.420159 0.771143
vt 0.676493 0.009530
vt 0.487134 0.969927
vt 0.487134 0.935620
vt 0.386058 0.767576
vt 0.441282 0.928754
vt 0.499697 0.777976
vt 0.312749 0.766822
vt 0.479531 0.928754
vt 0.378496 0.766822
vt 0.461448 0.777976
vt 0.860444 0.803186
vt 0.640744 0.123235
vt 0.839711 0.892116
vt 0.852006 0.803186
vt 0.632362 0.122270
vt 0.832878 0.892116
vt 0.299984 0.442093
vt 0.144441 0.906893
vt 0.309569 0.554458
vt 0.915592 0.910153
vt 0.144474 0.796474
vt 0.922425 0.910153
vt 0.917933 0.211060
vt 0.246479 0.796474
vt 0.915777 0.098308
vt 0.246512 0.906893
vt 0.591810 0.910524
vt 0.230207 0.920308
vt 0.711851 0.862716
vt 0.661272 0.910524
vt 0.160746 0.920308
vt 0.949647 0.817441
vt 0.891673 0.906953
vt 0.160772 0.777976
vt 0.946343 0.906953
vt 0.949647 0.886851
vt 0.230181 0.777976
vt 0.695396 0.733115
vt 0.858383 0.396468
vt 0.867340 0.396635
vt 0.895964 0.396479
vt 0.706376 0.855881
vt 0.739760 0.396468
vt 0.712830 0.733118
vt 0.005391 0.885470
vt 0.884841 0.396639
vt 0.891673 0.396961
vt 0.710604 0.855884
vt 0.126727 0.885470
vt 0.540753 0.900742
vt 0.891673 0.796856
vt 0.860507 0.796353
vt 0.551733 0.777976
vt 0.741885 0.796353
vt 0.884841 0.796691
vt 0.126727 0.003416
vt 0.536525 0.900744
vt 0.895964 0.797339
vt 0.005390 0.003416
vt 0.534299 0.777978
vt 0.867340 0.796695
vt 0.527466 0.921921
vt 0.284514 0.624606
vt 0.891673 0.805253
vt 0.406731 0.624606
vt 0.433679 0.921921
vt 0.891673 0.899040
vt 0.003416 0.396468
vt 0.340237 0.557064
vt 0.867340 0.403476
vt 0.959817 0.804172
vt 0.351008 0.557064
vt 0.003416 0.492418
vt 0.884841 0.003421
vt 0.959817 0.900121
vt 0.236867 0.353286
vt 0.265319 0.626523
vt 0.891673 0.403794
vt 0.859987 0.403301
vt 0.312454 0.436537
vt 0.739760 0.403301
vt 0.884841 0.403472
vt 0.322898 0.558880
vt 0.902797 0.284964
vt 0.435183 0.351368
vt 0.711851 0.869549
vt 0.256062 0.351368
vt 0.996584 0.284964
vt 0.711851 0.869549
vt 0.891673 0.003899
vt 0.374586 0.436095
vt 0.126244 0.492418
vt 0.711851 0.869549
vt 0.316659 0.436095
vt 0.126244 0.396468
vt 0.895964 0.404277
vt 0.711851 0.869549
vt 0.711851 0.869549
vt 0.579647 0.996336
vt 0.711851 0.869549
vt 0.673434 0.996336
vt 0.711851 0.869549
vt 0.578566 0.898199
vt 0.711851 0.869549
vt 0.674515 0.898199
vt 0.711851 0.862716
vt 0.161555 0.994141
vt 0.660462 0.984011
vt 0.711851 0.862716
vt 0.160746 0.920308
vt 0.425926 0.626523
vt 0.711851 0.876382
vt 0.454378 0.353286
vt 0.711851 0.876382
vt 0.895964 0.003416
vt 0.378791 0.436537
vt 0.740280 0.003416
vt 0.711851 0.876382
vt 0.368347 0.558880
vt 0.860507 0.003416
vt 0.867340 0.003416
vt 0.711851 0.876382
vt 0.711851 0.876382
vt 0.969441 0.278131
vt 0.711851 0.876382
vt 0.969312 0.003416
vt 0.711851 0.876382
vt 0.902797 0.094079
vt 0.711851 0.876382
vt 0.905137 0.216845
vt 0.564518 0.175432
vt 0.176115 0.613299
vt 0.852006 0.882408
vt 0.162540 0.482932
vt 0.852006 0.882408
vt 0.630902 0.132403
vt 0.822142 0.892096
vt 0.090560 0.892302
vt 0.133559 0.486114
vt 0.580050 0.312901
vt 0.852006 0.882408
vt 0.528705 0.482932
vt 0.679998 0.318393
vt 0.515130 0.613299
vt 0.694732 0.190424
vt 0.557686 0.486114
vt 0.648366 0.320766
vt 0.639863 0.133435
vt 0.850446 0.892096
vt 0.081540 0.892302
vt 0.852006 0.882408
vt 0.784157 0.803186
vt 0.852006 0.882408
vt 0.784157 0.932000
vt 0.852006 0.882408
vt 0.815310 0.809162
vt 0.852006 0.882408
vt 0.815310 0.937976
vt 0.719662 0.928466
vt 0.731506 0.259169
vt 0.546944 0.967433
vt 0.732928 0.246823
vt 0.705018 0.941243
vt 0.534299 0.967381
vt 0.729293 0.928442
vt 0.724712 0.259679
vt 0.726133 0.247333
vt 0.695396 0.941203
vt 0.739760 0.854846
vt 0.867340 0.967461
vt 0.965821 0.966758
vt 0.876970 0.882101
vt 0.739760 0.867274
vt 0.953176 0.966809
vt 0.746452 0.856129
vt 0.876962 0.967421
vt 0.867340 0.882077
vt 0.746452 0.868557
vt 0.663099 0.192798
vt 0.474429 0.982562
vt 0.663603 0.010408
vt 0.852006 0.882408
vt 0.594783 0.184932
vt 0.446384 0.982562
vt 0.635742 0.007200
vt 0.521062 0.938988
vt 0.850446 0.970468
vt 0.081540 0.964049
vt 0.860444 0.875576
vt 0.520771 0.928754
vt 0.839711 0.970488
vt 0.512042 0.938988
vt 0.822142 0.970468
vt 0.090560 0.964049
vt 0.852006 0.875576
vt 0.512333 0.928754
vt 0.832878 0.970488
s 1
f 81/224/1 104/282/2 42/114/3 41/112/4
f 104/282/2 81/224/1 82/225/5 103/280/6
f 95/259/7 108/292/8 55/148/9 56/152/10
f 108/292/8 95/259/7 96/261/11 107/290/12
f 60/162/13 59/159/14 128/337/15 130/343/16
f 81/224/1 86/235/17 88/242/18 83/228/19
f 95/259/7 78/213/20 80/220/21 98/267/22
f 108/293/8 123/327/23 124/329/24 55/149/9
f 86/235/17 81/224/1 41/112/4 22/63/25
f 68/183/26 12/32/27 6/16/28 63/170/29
f 106/288/30 125/331/31 123/327/23 109/295/32
f 1/1/33 14/37/34 117/313/35 115/307/36
f 13/35/37 3/7/38 120/320/39 122/325/40
f 104/282/2 106/287/30 23/65/41 42/114/3
f 39/108/42 21/61/43 29/82/44 40/109/45
f 24/67/46 38/105/47 37/103/48 32/88/49
f 18/47/50 19/51/51 47/125/52 46/122/53
f 107/290/12 96/261/11 39/108/42 38/105/47
f 85/232/54 86/236/17 22/62/25 21/59/43
f 96/261/11 85/233/54 21/61/43 39/108/42
f 109/294/32 107/290/12 38/105/47 24/67/46
f 106/288/30 109/295/32 24/68/46 23/66/41
f 37/104/48 40/110/45 43/115/55 44/117/56
f 43/115/55 40/110/45 29/81/44 30/84/57
f 37/104/48 44/117/56 31/85/58 32/89/49
f 22/63/25 30/83/57 36/100/59 34/94/60
f 42/114/3 23/65/41 31/86/58 44/118/56
f 23/66/41 24/68/46 32/90/49 31/87/58
f 22/63/25 41/112/4 43/116/55 30/83/57
f 28/78/61 20/55/62 49/131/63 51/137/64
f 33/91/65 34/95/60 36/101/59 35/97/66
f 21/60/43 22/64/25 34/96/60 33/92/65
f 30/84/57 29/81/44 35/98/66 36/102/59
f 29/82/44 21/61/43 33/93/65 35/99/66
f 18/48/50 26/72/67 37/103/48 38/105/47
f 19/52/51 18/49/50 38/106/47 39/107/42
f 27/75/68 19/53/51 39/108/42 40/109/45
f 17/43/69 20/56/62 41/111/4 42/113/3
f 26/73/67 27/76/68 40/110/45 37/104/48
f 28/80/61 25/70/70 44/117/56 43/115/55
f 25/69/70 17/44/69 42/114/3 44/118/56
f 20/57/62 28/79/61 43/116/55 41/112/4
f 46/123/53 47/126/52 48/128/71 45/119/72
f 27/76/68 26/73/67 45/120/72 48/129/71
f 19/54/51 27/77/68 48/130/71 47/127/52
f 26/74/67 18/50/50 46/124/53 45/121/72
f 49/132/63 50/134/73 52/140/74 51/138/64
f 25/70/70 28/80/61 51/139/64 52/141/74
f 20/58/62 17/45/69 50/135/73 49/133/63
f 17/46/69 25/71/70 52/142/74 50/136/73
f 54/145/75 53/143/76 56/151/10 55/150/9
f 54/145/75 55/150/9 124/328/24 126/332/77
f 56/151/10 53/143/76 57/153/78 58/156/79
f 78/213/20 95/259/7 56/152/10 58/157/79
f 125/331/31 103/279/6 54/146/75 126/333/77
f 77/210/80 78/214/20 58/158/79 57/154/78
f 103/280/6 82/225/5 53/144/76 54/147/75
f 82/225/5 77/211/80 57/155/78 53/144/76
f 88/243/18 79/216/81 76/207/82 75/204/83
f 79/216/81 88/243/18 87/240/84 80/221/21
f 87/238/84 97/263/85 70/189/86 72/195/87
f 66/177/88 10/27/89 93/254/90 94/257/91
f 85/233/54 96/261/11 97/264/85 87/239/84
f 77/211/80 82/225/5 84/231/92 79/217/81
f 70/190/86 69/186/93 71/192/94 72/196/87
f 80/221/21 87/240/84 72/197/87 71/193/94
f 97/265/85 98/268/22 69/187/93 70/191/86
f 98/269/22 80/222/21 71/194/94 69/188/93
f 74/201/95 73/198/96 75/205/83 76/208/82
f 83/226/19 88/244/18 75/206/83 73/199/96
f 84/229/92 83/227/19 73/200/96 74/202/95
f 79/218/81 84/230/92 74/203/95 76/209/82
f 11/29/97 12/33/27 78/215/20 77/212/80
f 68/184/26 67/180/98 79/219/81 80/223/21
f 12/33/27 68/184/26 80/223/21 78/215/20
f 67/180/98 11/29/97 77/212/80 79/219/81
f 4/10/99 8/22/100 82/225/5 81/224/1
f 62/167/101 61/165/102 83/228/19 84/231/92
f 61/165/102 4/10/99 81/224/1 83/228/19
f 8/22/100 62/167/101 84/231/92 82/225/5
f 89/246/103 90/248/103 86/237/17 85/234/54
f 92/252/104 91/250/104 87/241/84 88/245/18
f 90/248/103 92/252/104 88/245/18 86/237/17
f 91/250/104 89/246/103 85/234/54 87/241/84
f 9/26/105 10/28/89 90/249/103 89/247/103
f 66/178/88 65/175/106 91/251/104 92/253/104
f 10/28/89 66/178/88 92/253/104 90/249/103
f 65/175/106 9/26/105 89/247/103 91/251/104
f 99/271/107 100/273/108 96/262/11 95/260/7
f 100/273/108 101/275/109 97/266/85 96/262/11
f 102/277/110 99/271/107 95/260/7 98/270/22
f 101/275/109 102/277/110 98/270/22 97/266/85
f 6/17/28 2/4/111 100/274/108 99/272/107
f 2/4/111 64/173/112 101/276/109 100/274/108
f 63/171/29 6/17/28 99/272/107 102/278/110
f 64/173/112 63/171/29 102/278/110 101/276/109
f 11/30/97 67/181/98 62/168/101 8/23/100
f 61/166/102 94/258/91 93/255/90 4/11/99
f 9/25/105 65/176/106 64/174/112 2/5/111
f 67/182/98 68/185/26 63/172/29 64/174/112 65/176/106 66/179/88 94/258/91 61/166/102 62/169/101
f 11/31/97 8/24/100 4/12/99 93/256/90 10/28/89 9/26/105 2/6/111 6/18/28 12/34/27
f 111/299/113 112/301/114 104/283/2 103/281/6
f 114/305/115 113/303/116 125/330/31 106/289/30
f 113/303/116 111/299/113 103/281/6 125/330/31
f 112/301/114 114/305/115 106/289/30 104/283/2
f 1/2/33 5/13/117 108/293/8 107/291/12
f 16/41/118 14/38/34 109/295/32 123/327/23
f 5/13/117 16/41/118 123/327/23 108/293/8
f 14/38/34 1/2/33 107/291/12 109/295/32
f 7/19/119 3/8/38 112/302/114 111/300/113
f 13/36/37 15/39/120 113/304/116 114/306/115
f 15/39/120 7/19/119 111/300/113 113/304/116
f 3/8/38 13/36/37 114/306/115 112/302/114
f 116/310/121 115/308/36 117/314/35 118/315/122
f 14/38/34 16/41/118 118/315/122 117/314/35
f 16/42/118 5/14/117 116/311/121 118/316/122
f 5/15/117 1/3/33 115/309/36 116/312/121
f 120/321/39 119/317/123 121/323/124 122/326/40
f 15/39/120 13/36/37 122/326/40 121/323/124
f 7/20/119 15/40/120 121/324/124 119/318/123
f 3/9/38 7/21/119 119/319/123 120/322/39
f 110/296/125 59/160/14 124/329/24 123/327/23
f 105/284/126 110/296/125 123/327/23 125/331/31
f 59/160/14 60/163/13 126/333/77 124/329/24
f 60/163/13 105/284/126 125/331/31 126/333/77
f 127/334/127 129/340/128 130/344/16 128/338/15
f 59/161/14 110/297/125 127/335/127 128/339/15
f 105/285/126 60/164/13 130/345/16 129/341/128
f 110/298/125 105/286/126 129/342/128 127/336/127
